<svg viewBox="0 0 800 600" xmlns="http://www.w3.org/2000/svg" role="img">
<rect width="800" height="600" fill="#efeadd"/>

<rect x="0" y="0" width="800" height="600" rx="0" fill="#efeadd" opacity="1"/>
<circle cx="560.0" cy="60.0" r="4.50" fill="#1c6b3f" opacity="0.35"/>
<circle cx="584.0" cy="60.0" r="4.12" fill="#1c6b3f" opacity="0.35"/>
<circle cx="608.0" cy="60.0" r="3.75" fill="#1c6b3f" opacity="0.35"/>
<circle cx="632.0" cy="60.0" r="3.38" fill="#1c6b3f" opacity="0.35"/>
<circle cx="656.0" cy="60.0" r="3.00" fill="#1c6b3f" opacity="0.35"/>
<circle cx="680.0" cy="60.0" r="2.62" fill="#1c6b3f" opacity="0.35"/>
<circle cx="560.0" cy="84.0" r="4.12" fill="#1c6b3f" opacity="0.35"/>
<circle cx="584.0" cy="84.0" r="3.75" fill="#1c6b3f" opacity="0.35"/>
<circle cx="608.0" cy="84.0" r="3.38" fill="#1c6b3f" opacity="0.35"/>
<circle cx="632.0" cy="84.0" r="3.00" fill="#1c6b3f" opacity="0.35"/>
<circle cx="656.0" cy="84.0" r="2.62" fill="#1c6b3f" opacity="0.35"/>
<circle cx="680.0" cy="84.0" r="2.25" fill="#1c6b3f" opacity="0.35"/>
<circle cx="560.0" cy="108.0" r="3.75" fill="#1c6b3f" opacity="0.35"/>
<circle cx="584.0" cy="108.0" r="3.38" fill="#1c6b3f" opacity="0.35"/>
<circle cx="608.0" cy="108.0" r="3.00" fill="#1c6b3f" opacity="0.35"/>
<circle cx="632.0" cy="108.0" r="2.62" fill="#1c6b3f" opacity="0.35"/>
<circle cx="656.0" cy="108.0" r="2.25" fill="#1c6b3f" opacity="0.35"/>
<circle cx="680.0" cy="108.0" r="1.87" fill="#1c6b3f" opacity="0.35"/>
<circle cx="560.0" cy="132.0" r="3.38" fill="#1c6b3f" opacity="0.35"/>
<circle cx="584.0" cy="132.0" r="3.00" fill="#1c6b3f" opacity="0.35"/>
<circle cx="608.0" cy="132.0" r="2.62" fill="#1c6b3f" opacity="0.35"/>
<circle cx="632.0" cy="132.0" r="2.25" fill="#1c6b3f" opacity="0.35"/>
<circle cx="656.0" cy="132.0" r="1.87" fill="#1c6b3f" opacity="0.35"/>
<circle cx="680.0" cy="132.0" r="1.50" fill="#1c6b3f" opacity="0.35"/>
<circle cx="560.0" cy="156.0" r="3.00" fill="#1c6b3f" opacity="0.35"/>
<circle cx="584.0" cy="156.0" r="2.62" fill="#1c6b3f" opacity="0.35"/>
<circle cx="608.0" cy="156.0" r="2.25" fill="#1c6b3f" opacity="0.35"/>
<circle cx="632.0" cy="156.0" r="1.87" fill="#1c6b3f" opacity="0.35"/>
<circle cx="656.0" cy="156.0" r="1.50" fill="#1c6b3f" opacity="0.35"/>
<circle cx="680.0" cy="156.0" r="1.12" fill="#1c6b3f" opacity="0.35"/>
<circle cx="560.0" cy="180.0" r="2.62" fill="#1c6b3f" opacity="0.35"/>
<circle cx="584.0" cy="180.0" r="2.25" fill="#1c6b3f" opacity="0.35"/>
<circle cx="608.0" cy="180.0" r="1.87" fill="#1c6b3f" opacity="0.35"/>
<circle cx="632.0" cy="180.0" r="1.50" fill="#1c6b3f" opacity="0.35"/>
<circle cx="656.0" cy="180.0" r="1.12" fill="#1c6b3f" opacity="0.35"/>
<circle cx="680.0" cy="180.0" r="0.75" fill="#1c6b3f" opacity="0.35"/>
<g opacity="0.55" stroke="#d81f2a" stroke-width="2"><line x1="49.0" y1="540" x2="71.0" y2="540"/><line x1="60" y1="529.0" x2="60" y2="551.0"/></g>
<g transform="translate(210,90)">
  <rect x="0" y="0" width="20" height="380" rx="8" fill="#0f3d24"/>
  <rect x="360" y="0" width="20" height="380" rx="8" fill="#0f3d24"/>
  <rect x="20" y="20" width="340" height="340" fill="#f7f4ec"/>
  <rect x="20" y="20" width="340" height="90" fill="#d81f2a"/>
  <rect x="55" y="45" width="150" height="20" rx="4" fill="#f7f4ec" opacity="0.9"/>
  <rect x="55" y="75" width="220" height="14" rx="4" fill="#f7f4ec" opacity="0.7"/>
  <path d="M60 260 L130 170 L185 220 L250 150 L320 260" fill="none" stroke="#1c6b3f" stroke-width="10" stroke-linecap="round" stroke-linejoin="round"/>
  <circle cx="130" cy="170" r="9" fill="#0f3d24"/>
  <circle cx="250" cy="150" r="9" fill="#0f3d24"/>
</g>

<text x="34" y="570" font-family="IBM Plex Mono, monospace" font-size="15" letter-spacing="2" fill="#171a15" opacity="0.45">LARGE FORMAT</text>
</svg>